<svg version="1.1" xmlns="http://www.w3.org/2000/svg" xmlns:xlink="http://www.w3.org/1999/xlink" width="26" height="15"><defs/><g><path fill="rgb(255,255,255)" stroke="none" paint-order="stroke fill markers" fill-rule="evenodd" d=" M 23.70146942138672 9.178631484508514 C 23.32457733154297 8.78760313987732 22.71441650390625 8.787797391414642 22.337810516357422 9.178631484508514 C 22.337810516357422 9.178631484508514 20.985595703125 10.582098841667175 20.985595703125 10.582098841667175 C 20.985595703125 10.582098841667175 20.985595703125 3.0008498430252075 20.985595703125 3.0008498430252075 C 20.985595703125 2.448204219341278 20.55396270751953 1.9998716711997986 20.02133560180664 1.9998716711997986 C 20.02133560180664 1.9998716711997986 10.58205795288086 1.9998716711997986 10.58205795288086 1.9998716711997986 C 10.04952621459961 1.9998716711997986 9.6177978515625 2.448204219341278 9.6177978515625 3.0008498430252075 C 9.6177978515625 3.553495466709137 10.04952621459961 4.0016337633132935 10.58205795288086 4.0016337633132935 C 10.58205795288086 4.0016337633132935 19.057170867919922 4.0016337633132935 19.057170867919922 4.0016337633132935 C 19.057170867919922 4.0016337633132935 19.057170867919922 10.582098841667175 19.057170867919922 10.582098841667175 C 19.057170867919922 10.582098841667175 17.7049560546875 9.178437232971191 17.7049560546875 9.178437232971191 C 17.328350067138672 8.787408888339996 16.718093872070312 8.787408888339996 16.341487884521484 9.178048729896545 C 15.964786529541016 9.569465577602386 15.964595794677734 10.202142834663391 16.341297149658203 10.593753933906555 C 16.341297149658203 10.593753933906555 19.33917236328125 13.705469310283661 19.33917236328125 13.705469310283661 C 19.520465850830078 13.893504798412323 19.765464782714844 13.998789131641388 20.02133560180664 13.998789131641388 C 20.27749252319336 13.998789131641388 20.522300720214844 13.892922043800354 20.70349884033203 13.705469310283661 C 20.70349884033203 13.705469310283661 23.70166015625 10.593753933906555 23.70166015625 10.593753933906555 C 24.078170776367188 10.202919840812683 24.078170776367188 9.569465577602386 23.70146942138672 9.178631484508514 Z M 15.40087890625 11.997998297214508 C 15.40087890625 11.997998297214508 6.925956726074219 11.997998297214508 6.925956726074219 11.997998297214508 C 6.925956726074219 11.997998297214508 6.925956726074219 5.417533218860626 6.925956726074219 5.417533218860626 C 6.925956726074219 5.417533218860626 8.27817153930664 6.821000576019287 8.27817153930664 6.821000576019287 C 8.466522216796875 7.016611874103546 8.713237762451172 7.114320397377014 8.96014404296875 7.114320397377014 C 9.20724105834961 7.114320397377014 9.453765869140625 7.016611874103546 9.64211654663086 6.821000576019287 C 10.018722534179688 6.430360734462738 10.018722534179688 5.796517968177795 9.64230728149414 5.405683875083923 C 9.64230728149414 5.405683875083923 6.6434783935546875 2.2933857440948486 6.6434783935546875 2.2933857440948486 C 6.462471008300781 2.1055445075035095 6.217472076416016 2.0000659227371216 5.961505889892578 2.0000659227371216 C 5.7054443359375 2.0000659227371216 5.460350036621094 2.1055445075035095 5.2793426513671875 2.2933857440948486 C 5.2793426513671875 2.2933857440948486 2.2814674377441406 5.405683875083923 2.2814674377441406 5.405683875083923 C 1.9049568176269531 5.796517968177795 1.9049568176269531 6.429972231388092 2.281658172607422 6.821000576019287 C 2.658550262451172 7.212028920650482 3.2684249877929688 7.211834669113159 3.6453170776367188 6.821000576019287 C 3.6453170776367188 6.821000576019287 4.997531890869141 5.417533218860626 4.997531890869141 5.417533218860626 C 4.997531890869141 5.417533218860626 4.997531890869141 12.998782217502594 4.997531890869141 12.998782217502594 C 4.997531890869141 13.551427841186523 5.429164886474609 13.99956613779068 5.9617919921875 13.99956613779068 C 5.9617919921875 13.99956613779068 15.401069641113281 13.99956613779068 15.401069641113281 13.99956613779068 C 15.933696746826172 13.99956613779068 16.36532974243164 13.551427841186523 16.36532974243164 12.998782217502594 C 16.36513900756836 12.446136593818665 15.933696746826172 11.997998297214508 15.40087890625 11.997998297214508 Z"/></g></svg>