<svg version="1.1" xmlns="http://www.w3.org/2000/svg" xmlns:xlink="http://www.w3.org/1999/xlink" width="48" height="35"><defs/><g><path fill="rgb(241,109,127)" stroke="none" paint-order="stroke fill markers" fill-rule="evenodd" d=" M 13.110466003417969 27.417200207710266 C 12.597579956054688 27.417200207710266 12.181873321533203 27.838131546974182 12.181873321533203 28.357084333896637 C 12.181873321533203 28.855471312999725 11.7816162109375 29.260911524295807 11.289615631103516 29.260911524295807 C 10.79732894897461 29.260911524295807 10.396881103515625 28.855471312999725 10.396881103515625 28.357084333896637 C 10.396881103515625 27.858964443206787 10.79732894897461 27.453791320323944 11.289615631103516 27.453791320323944 C 11.802406311035156 27.453791320323944 12.218208312988281 27.032859981060028 12.218208312988281 26.513640105724335 C 12.218208312988281 25.99468731880188 11.802406311035156 25.573755979537964 11.289615631103516 25.573755979537964 C 9.773368835449219 25.573755979537964 8.539791107177734 26.82239431142807 8.539791107177734 28.357084333896637 C 8.539791107177734 29.892041444778442 9.773368835449219 31.14067977666855 11.289615631103516 31.14067977666855 C 12.80557632446289 31.14067977666855 14.038963317871094 29.892041444778442 14.038963317871094 28.357084333896637 C 14.038963317871094 27.837864458560944 13.62325668334961 27.417200207710266 13.110466003417969 27.417200207710266 Z M 39.58198547363281 27.417200207710266 C 39.06909942626953 27.417200207710266 38.65339279174805 27.838131546974182 38.65339279174805 28.357084333896637 C 38.65339279174805 28.855471312999725 38.253135681152344 29.260911524295807 37.76113510131836 29.260911524295807 C 37.26884841918945 29.260911524295807 36.86840057373047 28.855471312999725 36.86840057373047 28.357084333896637 C 36.86840057373047 27.858964443206787 37.26884841918945 27.453791320323944 37.76113510131836 27.453791320323944 C 38.27392578125 27.453791320323944 38.689727783203125 27.032859981060028 38.689727783203125 26.513640105724335 C 38.689727783203125 25.99468731880188 38.27392578125 25.573755979537964 37.76113510131836 25.573755979537964 C 36.24488830566406 25.573755979537964 35.01131057739258 26.82239431142807 35.01131057739258 28.357084333896637 C 35.01131057739258 29.892041444778442 36.24488830566406 31.14067977666855 37.76113510131836 31.14067977666855 C 39.277095794677734 31.14067977666855 40.51048278808594 29.892041444778442 40.51048278808594 28.357084333896637 C 40.51048278808594 27.837864458560944 40.09477615356445 27.417200207710266 39.58198547363281 27.417200207710266 Z M 46.87110900878906 15.396084904670715 C 46.87110900878906 15.396084904670715 43.31104278564453 9.290176689624786 43.31104278564453 9.290176689624786 C 42.09014892578125 7.227987051010132 40.93801498413086 6.023685395717621 38.63203048706055 5.8201640248298645 C 38.55640411376953 5.799865305423737 38.47696304321289 5.789181768894196 38.39494705200195 5.789181768894196 C 38.39494705200195 5.789181768894196 31.272239685058594 5.789181768894196 31.272239685058594 5.789181768894196 C 31.272239685058594 5.789181768894196 31.272239685058594 3.8797667026519775 31.272239685058594 3.8797667026519775 C 31.272239685058594 2.8431965708732605 30.439109802246094 1.9997313618659973 29.415149688720703 1.9997313618659973 C 29.415149688720703 1.9997313618659973 3.8570594787597656 1.9997313618659973 3.8570594787597656 1.9997313618659973 C 2.833099365234375 1.9997313618659973 1.999969482421875 2.8431965708732605 1.999969482421875 3.8797667026519775 C 1.999969482421875 3.8797667026519775 1.999969482421875 27.417200207710266 1.999969482421875 27.417200207710266 C 1.999969482421875 28.45403742790222 2.833099365234375 29.297235548496246 3.8570594787597656 29.297235548496246 C 3.8570594787597656 29.297235548496246 5.7944488525390625 29.297235548496246 5.7944488525390625 29.297235548496246 C 6.238193511962891 31.96251082420349 8.532829284667969 33.99986124038696 11.289997100830078 33.99986124038696 C 14.046497344970703 33.99986124038696 16.340656280517578 31.96251082420349 16.784305572509766 29.297235548496246 C 16.784305572509766 29.297235548496246 32.265968322753906 29.297235548496246 32.265968322753906 29.297235548496246 C 32.709712982177734 31.96251082420349 35.00434875488281 33.99986124038696 37.76151657104492 33.99986124038696 C 40.51801681518555 33.99986124038696 42.81217575073242 31.96251082420349 43.25582504272461 29.297235548496246 C 43.25582504272461 29.297235548496246 46.07135772705078 29.297235548496246 46.07135772705078 29.297235548496246 C 46.58414840698242 29.297235548496246 46.99995040893555 28.87630420923233 46.99995040893555 28.357351422309875 C 46.99995040893555 28.357351422309875 46.99995040893555 15.873906075954437 46.99995040893555 15.873906075954437 C 46.99995040893555 15.705907464027405 46.955413818359375 15.540846824645996 46.87110900878906 15.396084904670715 Z M 43.33478927612305 18.99803924560547 C 43.33478927612305 18.47962063550949 43.7513542175293 18.058155119419098 44.26338195800781 18.058155119419098 C 44.26338195800781 18.058155119419098 45.142765045166016 18.058155119419098 45.142765045166016 18.058155119419098 C 45.142765045166016 18.058155119419098 45.142765045166016 19.908543646335602 45.142765045166016 19.908543646335602 C 45.142765045166016 19.908543646335602 43.33478927612305 19.908543646335602 43.33478927612305 19.908543646335602 C 43.33478927612305 19.908543646335602 43.33478927612305 18.99803924560547 43.33478927612305 18.99803924560547 Z M 44.585914611816406 15.175469875335693 C 44.585914611816406 15.175469875335693 36.05567932128906 15.175469875335693 36.05567932128906 15.175469875335693 C 35.99454879760742 15.162649631500244 35.931129455566406 15.155972421169281 35.86618423461914 15.155972421169281 C 35.34385681152344 15.155972421169281 34.91889953613281 14.725692987442017 34.91889953613281 14.196857929229736 C 34.91889953613281 14.196857929229736 34.91889953613281 10.430377125740051 34.91889953613281 10.430377125740051 C 34.91889953613281 10.430377125740051 41.819305419921875 10.430377125740051 41.819305419921875 10.430377125740051 C 41.819305419921875 10.430377125740051 44.585914611816406 15.175469875335693 44.585914611816406 15.175469875335693 Z M 3.8570594787597656 3.8797667026519775 C 3.8570594787597656 3.8797667026519775 29.415149688720703 3.8797667026519775 29.415149688720703 3.8797667026519775 C 29.415149688720703 3.8797667026519775 29.415149688720703 27.417200207710266 29.415149688720703 27.417200207710266 C 29.415149688720703 27.417200207710266 16.784400939941406 27.417200207710266 16.784400939941406 27.417200207710266 C 16.34103775024414 24.75192493200302 14.046688079833984 22.71457451581955 11.289997100830078 22.71457451581955 C 8.532543182373047 22.71457451581955 6.237812042236328 24.75192493200302 5.794353485107422 27.417200207710266 C 5.794353485107422 27.417200207710266 3.8570594787597656 27.417200207710266 3.8570594787597656 27.417200207710266 C 3.8570594787597656 27.417200207710266 3.8570594787597656 3.8797667026519775 3.8570594787597656 3.8797667026519775 Z M 11.289997100830078 32.11982589960098 C 9.240264892578125 32.11982589960098 7.572765350341797 30.431827127933502 7.572765350341797 28.3568172454834 C 7.572765350341797 26.28234153985977 9.240264892578125 24.59434276819229 11.289997100830078 24.59434276819229 C 13.338966369628906 24.59434276819229 15.006084442138672 26.28234153985977 15.006084442138672 28.3568172454834 C 15.006084442138672 30.431827127933502 13.338966369628906 32.11982589960098 11.289997100830078 32.11982589960098 Z M 37.76151657104492 32.11982589960098 C 35.71178436279297 32.11982589960098 34.04428482055664 30.431827127933502 34.04428482055664 28.3568172454834 C 34.04428482055664 26.28234153985977 35.71178436279297 24.59434276819229 37.76151657104492 24.59434276819229 C 39.81048583984375 24.59434276819229 41.477603912353516 26.28234153985977 41.477603912353516 28.3568172454834 C 41.477603912353516 30.431827127933502 39.81058120727539 32.11982589960098 37.76151657104492 32.11982589960098 Z M 43.25592041015625 27.417200207710266 C 42.812557220458984 24.75192493200302 40.51820755004883 22.71457451581955 37.76151657104492 22.71457451581955 C 35.00406265258789 22.71457451581955 32.70933151245117 24.75192493200302 32.265872955322266 27.417200207710266 C 32.265872955322266 27.417200207710266 31.272239685058594 27.417200207710266 31.272239685058594 27.417200207710266 C 31.272239685058594 27.417200207710266 31.272239685058594 7.669217109680176 31.272239685058594 7.669217109680176 C 31.272239685058594 7.669217109680176 37.89693832397461 7.669217109680176 37.89693832397461 7.669217109680176 C 39.082069396972656 7.669217109680176 39.822120666503906 7.922149837017059 40.475006103515625 8.550341784954071 C 40.475006103515625 8.550341784954071 33.99030685424805 8.550341784954071 33.99030685424805 8.550341784954071 C 33.477516174316406 8.550341784954071 33.06171417236328 8.971273124217987 33.06171417236328 9.49049299955368 C 33.06171417236328 9.49049299955368 33.06171417236328 14.196857929229736 33.06171417236328 14.196857929229736 C 33.06171417236328 15.684006214141846 34.19696807861328 16.90780532360077 35.636253356933594 17.026392579078674 C 35.709781646728516 17.04535585641861 35.78683853149414 17.055505216121674 35.86618423461914 17.055505216121674 C 35.86618423461914 17.055505216121674 42.246742248535156 17.055505216121674 42.246742248535156 17.055505216121674 C 41.770668029785156 17.56163775920868 41.477603912353516 18.245651185512543 41.477603912353516 18.99777215719223 C 41.477603912353516 18.99777215719223 41.477603912353516 20.848427772521973 41.477603912353516 20.848427772521973 C 41.477603912353516 21.367380559444427 41.89340591430664 21.788311898708344 42.40619659423828 21.788311898708344 C 42.40619659423828 21.788311898708344 45.142765045166016 21.788311898708344 45.142765045166016 21.788311898708344 C 45.142765045166016 21.788311898708344 45.142765045166016 27.417200207710266 45.142765045166016 27.417200207710266 C 45.142765045166016 27.417200207710266 43.25592041015625 27.417200207710266 43.25592041015625 27.417200207710266 C 43.25592041015625 27.417200207710266 43.25592041015625 27.417200207710266 43.25592041015625 27.417200207710266 Z M 6.681461334228516 7.669217109680176 C 6.681461334228516 7.669217109680176 26.590747833251953 7.669217109680176 26.590747833251953 7.669217109680176 C 27.103538513183594 7.669217109680176 27.51934051513672 7.24828577041626 27.51934051513672 6.729065895080566 C 27.51934051513672 6.210113108158112 27.103538513183594 5.789181768894196 26.590747833251953 5.789181768894196 C 26.590747833251953 5.789181768894196 6.681461334228516 5.789181768894196 6.681461334228516 5.789181768894196 C 6.168670654296875 5.789181768894196 5.75286865234375 6.210113108158112 5.75286865234375 6.729065895080566 C 5.75286865234375 7.24828577041626 6.168670654296875 7.669217109680176 6.681461334228516 7.669217109680176 Z"/></g></svg>