<svg version="1.1" xmlns="http://www.w3.org/2000/svg" xmlns:xlink="http://www.w3.org/1999/xlink" width="51" height="37"><defs/><g><path fill="rgb(241,109,127)" stroke="none" paint-order="stroke fill markers" fill-rule="evenodd" d=" M 44.3740119934082 9.549137532711029 C 41.81044006347656 9.549137532711029 39.726566314697266 11.587823390960693 39.726566314697266 14.090975999832153 C 39.726566314697266 15.43362945318222 40.33434295654297 16.630452632904053 41.28649139404297 17.462967216968536 C 41.28649139404297 17.462967216968536 35.42473220825195 19.522485971450806 35.42473220825195 19.522485971450806 C 35.42473220825195 19.522485971450806 27.083133697509766 9.82049936056137 27.083133697509766 9.82049936056137 C 28.881572723388672 9.192841589450836 30.18114471435547 7.5294149518013 30.18114471435547 5.555364489555359 C 30.18114471435547 3.0506093502044678 28.09717559814453 1.0105880498886108 25.534271240234375 1.0105880498886108 C 22.974132537841797 1.0105880498886108 20.888065338134766 3.0506093502044678 20.888065338134766 5.555364489555359 C 20.888065338134766 7.509917497634888 22.164749145507812 9.163461863994598 23.933815002441406 9.80607658624649 C 23.933815002441406 9.80607658624649 15.578865051269531 19.522485971450806 15.578865051269531 19.522485971450806 C 15.578865051269531 19.522485971450806 9.71929931640625 17.462967216968536 9.71929931640625 17.462967216968536 C 10.670875549316406 16.630452632904053 11.277889251708984 15.43362945318222 11.277889251708984 14.090975999832153 C 11.277889251708984 11.587823390960693 9.194015502929688 9.549137532711029 6.631778717041016 9.549137532711029 C 4.071067810058594 9.549137532711029 1.9841423034667969 11.587823390960693 1.9841423034667969 14.090975999832153 C 1.9841423034667969 16.223944067955017 3.50286865234375 18.007026314735413 5.531620025634766 18.493394315242767 C 5.531620025634766 18.493394315242767 5.531620025634766 30.808306872844696 5.531620025634766 30.808306872844696 C 5.531620025634766 30.89457643032074 5.563282012939453 30.968025743961334 5.581687927246094 31.05002188682556 C 5.550025939941406 31.173683822155 5.531620025634766 31.303221702575684 5.531620025634766 31.438635528087616 C 5.531620025634766 35.85948294401169 23.456214904785156 35.98902082443237 25.499557495117188 35.98902082443237 C 27.540802001953125 35.98902082443237 45.46749496459961 35.85948294401169 45.46749496459961 31.438635528087616 C 45.46749496459961 31.303221702575684 45.448421478271484 31.173683822155 45.41752243041992 31.05002188682556 C 45.43964767456055 30.968025743961334 45.46749496459961 30.89457643032074 45.46749496459961 30.808306872844696 C 45.46749496459961 30.808306872844696 45.46749496459961 18.493394315242767 45.46749496459961 18.493394315242767 C 47.50006103515625 18.007026314735413 49.0157356262207 16.223944067955017 49.0157356262207 14.090975999832153 C 49.0187873840332 11.587823390960693 46.934913635253906 9.549137532711029 44.3740119934082 9.549137532711029 Z M 23.14865493774414 5.55696702003479 C 23.14865493774414 4.270135045051575 24.220012664794922 3.222614288330078 25.535606384277344 3.222614288330078 C 26.849102020263672 3.222614288330078 27.920555114746094 4.270135045051575 27.920555114746094 5.55696702003479 C 27.920555114746094 6.843531906604767 26.849102020263672 7.889717221260071 25.535606384277344 7.889717221260071 C 24.220012664794922 7.889717221260071 23.14865493774414 6.843531906604767 23.14865493774414 5.55696702003479 Z M 15.556167602539062 21.86538553237915 C 15.999053955078125 22.01789301633835 16.498016357421875 21.888355135917664 16.80261993408203 21.534462988376617 C 16.80261993408203 21.534462988376617 25.501083374023438 11.415017187595367 25.501083374023438 11.415017187595367 C 25.501083374023438 11.415017187595367 34.20164489746094 21.534462988376617 34.20164489746094 21.534462988376617 C 34.504913330078125 21.888355135917664 35.002349853515625 22.01789301633835 35.44676208496094 21.866720974445343 C 35.44676208496094 21.866720974445343 43.207000732421875 19.13600903749466 43.207000732421875 19.13600903749466 C 43.207000732421875 19.13600903749466 43.207000732421875 29.092797994613647 43.207000732421875 29.092797994613647 C 38.320945739746094 26.967041313648224 27.093433380126953 26.88798314332962 25.499557495117188 26.88798314332962 C 23.906539916992188 26.88798314332962 12.676738739013672 26.967041313648224 7.7921142578125 29.092797994613647 C 7.7921142578125 29.092797994613647 7.7921142578125 19.134673595428467 7.7921142578125 19.134673595428467 C 7.7921142578125 19.134673595428467 15.556167602539062 21.86538553237915 15.556167602539062 21.86538553237915 Z M 25.502609252929688 33.77859711647034 C 16.795181274414062 33.77859711647034 11.249279022216797 32.76553076505661 8.940814971923828 31.913518726825714 C 8.486865997314453 31.746588468551636 8.14764404296875 31.58099365234375 7.944511413574219 31.438635528087616 C 8.66634750366211 30.91621059179306 11.006282806396484 30.203618705272675 14.912914276123047 29.703095018863678 C 17.667316436767578 29.348935782909393 21.192668914794922 29.098406851291656 25.502609252929688 29.098406851291656 C 29.813121795654297 29.098406851291656 33.339332580566406 29.348935782909393 36.09430694580078 29.703095018863678 C 40.00017547607422 30.203618705272675 42.341636657714844 30.91621059179306 43.061279296875 31.438635528087616 C 42.85824203491211 31.585267066955566 42.51978302001953 31.746588468551636 42.06650161743164 31.913518726825714 C 39.7588005065918 32.76553076505661 34.213565826416016 33.77859711647034 25.502609252929688 33.77859711647034 Z M 4.2490234375 14.090975999832153 C 4.2490234375 12.80574655532837 5.320476531982422 11.759561240673065 6.636165618896484 11.759561240673065 C 7.9519500732421875 11.759561240673065 9.021686553955078 12.80574655532837 9.021686553955078 14.090975999832153 C 9.021686553955078 15.377807974815369 7.9519500732421875 16.425328731536865 6.636165618896484 16.425328731536865 C 5.320476531982422 16.425328731536865 4.2490234375 15.377807974815369 4.2490234375 14.090975999832153 Z M 44.3740119934082 16.425328731536865 C 43.05841827392578 16.425328731536865 41.987060546875 15.377807974815369 41.987060546875 14.090975999832153 C 41.987060546875 12.80574655532837 43.05841827392578 11.759561240673065 44.3740119934082 11.759561240673065 C 45.686744689941406 11.759561240673065 46.76115417480469 12.80574655532837 46.76115417480469 14.090975999832153 C 46.75829315185547 15.377807974815369 45.686744689941406 16.425328731536865 44.3740119934082 16.425328731536865 Z"/></g></svg>