<svg version="1.1" xmlns="http://www.w3.org/2000/svg" xmlns:xlink="http://www.w3.org/1999/xlink" width="30" height="27"><defs/><g><path fill="rgb(239,91,112)" stroke="none" paint-order="stroke fill markers" fill-rule="evenodd" d=" M 2.9614334106445312 3.9559881687164307 C 2.9614334106445312 3.9559881687164307 5.718315124511719 3.9559881687164307 5.718315124511719 3.9559881687164307 C 5.718315124511719 3.9559881687164307 9.645259857177734 18.40159583091736 9.645259857177734 18.40159583091736 C 9.75741195678711 18.825436115264893 10.14202880859375 19.118879318237305 10.574901580810547 19.118879318237305 C 10.574901580810547 19.118879318237305 22.644222259521484 19.118879318237305 22.644222259521484 19.118879318237305 C 23.028934478759766 19.118879318237305 23.36548614501953 18.89073419570923 23.52570343017578 18.53179383277893 C 23.52570343017578 18.53179383277893 27.917564392089844 8.260485410690308 27.917564392089844 8.260485410690308 C 28.045738220214844 7.950518608093262 28.013694763183594 7.608101844787598 27.837360382080078 7.3309831619262695 C 27.661121368408203 7.053864479064941 27.356517791748047 6.890818357467651 27.035892486572266 6.890818357467651 C 27.035892486572266 6.890818357467651 13.70047378540039 6.890818357467651 13.70047378540039 6.890818357467651 C 13.171470642089844 6.890818357467651 12.738693237304688 7.3309831619262695 12.738693237304688 7.868896007537842 C 12.738693237304688 8.407007932662964 13.171470642089844 8.847172737121582 13.70047378540039 8.847172737121582 C 13.70047378540039 8.847172737121582 25.561416625976562 8.847172737121582 25.561416625976562 8.847172737121582 C 25.561416625976562 8.847172737121582 22.003162384033203 17.162126779556274 22.003162384033203 17.162126779556274 C 22.003162384033203 17.162126779556274 11.296165466308594 17.162126779556274 11.296165466308594 17.162126779556274 C 11.296165466308594 17.162126779556274 7.369316101074219 2.717116355895996 7.369316101074219 2.717116355895996 C 7.257068634033203 2.2928779125213623 6.8724517822265625 1.9994347095489502 6.439674377441406 1.9994347095489502 C 6.439674377441406 1.9994347095489502 2.9614334106445312 1.9994347095489502 2.9614334106445312 1.9994347095489502 C 2.432525634765625 1.9994347095489502 1.9997482299804688 2.4395995140075684 1.9997482299804688 2.9775123596191406 C 1.9997482299804688 3.5160224437713623 2.432525634765625 3.9559881687164307 2.9614334106445312 3.9559881687164307 Z M 9.66128158569336 25.999465465545654 C 10.863388061523438 25.999465465545654 11.841094970703125 25.00466513633728 11.841094970703125 23.78191876411438 C 11.841094970703125 22.55957055091858 10.863388061523438 21.564571142196655 9.66128158569336 21.564571142196655 C 8.45907974243164 21.564571142196655 7.481372833251953 22.55937147140503 7.481372833251953 23.78191876411438 C 7.481372833251953 25.00466513633728 8.45907974243164 25.999465465545654 9.66128158569336 25.999465465545654 Z M 23.285472869873047 25.999465465545654 C 23.333538055419922 25.999465465545654 23.39752960205078 25.999465465545654 23.445594787597656 25.999465465545654 C 24.02275848388672 25.950690984725952 24.551666259765625 25.689697742462158 24.936283111572266 25.233208417892456 C 25.320995330810547 24.793242692947388 25.497329711914062 24.222083568572998 25.465286254882812 23.61907172203064 C 25.385082244873047 22.412450790405273 24.3433837890625 21.482948541641235 23.14118194580078 21.564571142196655 C 21.939075469970703 21.646193742752075 21.04147720336914 22.72221851348877 21.121490478515625 23.928839445114136 C 21.20178985595703 25.0862877368927 22.14745330810547 25.999465465545654 23.285472869873047 25.999465465545654 Z"/></g></svg>