<svg version="1.1" xmlns="http://www.w3.org/2000/svg" xmlns:xlink="http://www.w3.org/1999/xlink" width="42" height="44"><defs/><g><path fill="rgb(241,109,127)" stroke="none" paint-order="stroke fill markers" fill-rule="evenodd" d=" M 25.78262710571289 20.501411974430084 C 23.888534545898438 20.501411974430084 22.32345962524414 22.13252091407776 22.32345962524414 25.06488460302353 C 22.343963623046875 27.974011600017548 23.888534545898438 29.42617130279541 25.671524047851562 29.42617130279541 C 27.501529693603516 29.42617130279541 29.087108612060547 27.905369877815247 29.087108612060547 24.839461982250214 C 29.087966918945312 22.06735134124756 27.788585662841797 20.501411974430084 25.78262710571289 20.501411974430084 Z M 25.71682357788086 28.241100013256073 C 24.5267333984375 28.241100013256073 23.82187271118164 26.83220863342285 23.844093322753906 24.976478338241577 C 23.844093322753906 23.141580939292908 24.50537109375 21.687551617622375 25.71682357788086 21.687551617622375 C 27.05978775024414 21.687551617622375 27.56637954711914 23.16321510076523 27.56637954711914 24.932141661643982 C 27.56637954711914 26.853842794895172 26.99398422241211 28.241100013256073 25.71682357788086 28.241100013256073 Z M 19.768184661865234 18.822761297225952 C 19.768184661865234 16.04984939098358 18.446487426757812 14.482307493686676 16.441387176513672 14.482307493686676 C 14.546531677246094 14.482307493686676 12.983078002929688 16.116621494293213 12.983078002929688 19.02387887239456 C 13.005298614501953 21.953838765621185 14.54738998413086 23.407868087291718 16.33123779296875 23.407868087291718 C 18.182510375976562 23.407868087291718 19.768184661865234 21.887066662311554 19.768184661865234 18.822761297225952 Z M 14.525169372558594 18.957908034324646 C 14.525169372558594 17.12220937013626 15.165943145751953 15.668981313705444 16.37558364868164 15.668981313705444 C 17.719501495361328 15.668981313705444 18.226093292236328 17.144911885261536 18.226093292236328 18.91383844614029 C 18.226093292236328 20.836340844631195 17.65283966064453 22.223598062992096 16.37558364868164 22.223598062992096 C 15.165943145751953 22.221995532512665 14.480728149414062 20.812837064266205 14.525169372558594 18.957908034324646 Z M 24.614757537841797 14.638287127017975 C 24.614757537841797 14.638287127017975 16.198772430419922 29.387176394462585 16.198772430419922 29.387176394462585 C 16.198772430419922 29.387176394462585 17.43158721923828 29.387176394462585 17.43158721923828 29.387176394462585 C 17.43158721923828 29.387176394462585 25.84833526611328 14.638287127017975 25.84833526611328 14.638287127017975 C 25.84833526611328 14.638287127017975 24.614757537841797 14.638287127017975 24.614757537841797 14.638287127017975 Z M 37.584251403808594 24.973006188869476 C 37.584251403808594 24.973006188869476 40.996402740478516 21.998976707458496 40.996402740478516 21.998976707458496 C 40.996402740478516 21.998976707458496 37.584251403808594 19.028419375419617 37.584251403808594 19.028419375419617 C 37.584251403808594 19.028419375419617 39.79439163208008 15.05387669801712 39.79439163208008 15.05387669801712 C 39.79439163208008 15.05387669801712 35.58506393432617 13.450544953346252 35.58506393432617 13.450544953346252 C 35.58506393432617 13.450544953346252 36.31729507446289 8.947167217731476 36.31729507446289 8.947167217731476 C 36.31729507446289 8.947167217731476 31.822628021240234 8.902029275894165 31.822628021240234 8.902029275894165 C 31.822628021240234 8.902029275894165 31.001705169677734 4.412273049354553 31.001705169677734 4.412273049354553 C 31.001705169677734 4.412273049354553 26.76081085205078 5.926931440830231 26.76081085205078 5.926931440830231 C 26.76081085205078 5.926931440830231 24.472087860107422 1.9977937936782837 24.472087860107422 1.9977937936782837 C 24.472087860107422 1.9977937936782837 21.000045776367188 4.901579022407532 21.000045776367188 4.901579022407532 C 21.000045776367188 4.901579022407532 17.528099060058594 1.9977937936782837 17.528099060058594 1.9977937936782837 C 17.528099060058594 1.9977937936782837 15.239376068115234 5.926130175590515 15.239376068115234 5.926130175590515 C 15.239376068115234 5.926130175590515 10.999340057373047 4.411471784114838 10.999340057373047 4.411471784114838 C 10.999340057373047 4.411471784114838 10.17746353149414 8.900960922241211 10.17746353149414 8.900960922241211 C 10.17746353149414 8.900960922241211 5.682033538818359 8.945297598838806 5.682033538818359 8.945297598838806 C 5.682033538818359 8.945297598838806 6.415027618408203 13.448942422866821 6.415027618408203 13.448942422866821 C 6.415027618408203 13.448942422866821 2.204936981201172 15.05227416753769 2.204936981201172 15.05227416753769 C 2.204936981201172 15.05227416753769 4.415077209472656 19.02574849128723 4.415077209472656 19.02574849128723 C 4.415077209472656 19.02574849128723 1.0029258728027344 21.998976707458496 1.0029258728027344 21.998976707458496 C 1.0029258728027344 21.998976707458496 4.415077209472656 24.971136569976807 4.415077209472656 24.971136569976807 C 4.415077209472656 24.971136569976807 2.204936981201172 28.945679247379303 2.204936981201172 28.945679247379303 C 2.204936981201172 28.945679247379303 6.4141693115234375 30.5471413731575 6.4141693115234375 30.5471413731575 C 6.4141693115234375 30.5471413731575 5.682033538818359 35.0534570813179 5.682033538818359 35.0534570813179 C 5.682033538818359 35.0534570813179 10.176605224609375 35.098327934741974 10.176605224609375 35.098327934741974 C 10.176605224609375 35.098327934741974 10.997623443603516 39.588084161281586 10.997623443603516 39.588084161281586 C 10.997623443603516 39.588084161281586 15.238517761230469 38.07262450456619 15.238517761230469 38.07262450456619 C 15.238517761230469 38.07262450456619 17.527240753173828 42.00176215171814 17.527240753173828 42.00176215171814 C 17.527240753173828 42.00176215171814 20.999187469482422 39.09797692298889 20.999187469482422 39.09797692298889 C 20.999187469482422 39.09797692298889 24.47037124633789 42.00176215171814 24.47037124633789 42.00176215171814 C 24.47037124633789 42.00176215171814 26.75909423828125 38.07262450456619 26.75909423828125 38.07262450456619 C 26.75909423828125 38.07262450456619 30.999130249023438 39.5888854265213 30.999130249023438 39.5888854265213 C 30.999130249023438 39.5888854265213 31.820148468017578 35.09939628839493 31.820148468017578 35.09939628839493 C 31.820148468017578 35.09939628839493 36.31557846069336 35.0534570813179 36.31557846069336 35.0534570813179 C 36.31557846069336 35.0534570813179 35.582584381103516 30.550613522529602 35.582584381103516 30.550613522529602 C 35.582584381103516 30.550613522529602 39.79267501831055 28.94648051261902 39.79267501831055 28.94648051261902 C 39.79267501831055 28.94648051261902 37.584251403808594 24.973006188869476 37.584251403808594 24.973006188869476 Z M 34.918731689453125 28.74696546792984 C 34.918731689453125 28.74696546792984 33.45951461791992 29.30304354429245 33.45951461791992 29.30304354429245 C 33.45951461791992 29.30304354429245 33.713287353515625 30.865510761737823 33.713287353515625 30.865510761737823 C 33.713287353515625 30.865510761737823 34.08493423461914 33.152588844299316 34.08493423461914 33.152588844299316 C 34.08493423461914 33.152588844299316 31.802982330322266 33.17422300577164 31.802982330322266 33.17422300577164 C 31.802982330322266 33.17422300577164 30.242198944091797 33.19051539897919 30.242198944091797 33.19051539897919 C 30.242198944091797 33.19051539897919 29.956859588623047 34.748709201812744 29.956859588623047 34.748709201812744 C 29.956859588623047 34.748709201812744 29.539913177490234 37.02617210149765 29.539913177490234 37.02617210149765 C 29.539913177490234 37.02617210149765 27.388710021972656 36.25669038295746 27.388710021972656 36.25669038295746 C 27.388710021972656 36.25669038295746 25.920146942138672 35.73266291618347 25.920146942138672 35.73266291618347 C 25.920146942138672 35.73266291618347 25.128215789794922 37.092142939567566 25.128215789794922 37.092142939567566 C 25.128215789794922 37.092142939567566 23.967117309570312 39.08569085597992 23.967117309570312 39.08569085597992 C 23.967117309570312 39.08569085597992 22.205490112304688 37.611896991729736 22.205490112304688 37.611896991729736 C 22.205490112304688 37.611896991729736 20.999187469482422 36.60443949699402 20.999187469482422 36.60443949699402 C 20.999187469482422 36.60443949699402 19.793743133544922 37.611896991729736 19.793743133544922 37.611896991729736 C 19.793743133544922 37.611896991729736 18.032115936279297 39.08569085597992 18.032115936279297 39.08569085597992 C 18.032115936279297 39.08569085597992 16.870254516601562 37.092142939567566 16.870254516601562 37.092142939567566 C 16.870254516601562 37.092142939567566 16.077465057373047 35.731861650943756 16.077465057373047 35.731861650943756 C 16.077465057373047 35.731861650943756 14.608901977539062 36.25588911771774 14.608901977539062 36.25588911771774 C 14.608901977539062 36.25588911771774 12.455982208251953 37.02456957101822 12.455982208251953 37.02456957101822 C 12.455982208251953 37.02456957101822 12.039894104003906 34.74710667133331 12.039894104003906 34.74710667133331 C 12.039894104003906 34.74710667133331 11.754554748535156 33.188912868499756 11.754554748535156 33.188912868499756 C 11.754554748535156 33.188912868499756 10.193771362304688 33.17235338687897 10.193771362304688 33.17235338687897 C 10.193771362304688 33.17235338687897 7.9118194580078125 33.14991796016693 7.9118194580078125 33.14991796016693 C 7.9118194580078125 33.14991796016693 8.283466339111328 30.861237347126007 8.283466339111328 30.861237347126007 C 8.283466339111328 30.861237347126007 8.538097381591797 29.298770129680634 8.538097381591797 29.298770129680634 C 8.538097381591797 29.298770129680634 7.078022003173828 28.742692053318024 7.078022003173828 28.742692053318024 C 7.078022003173828 28.742692053318024 4.9447479248046875 27.931277453899384 4.9447479248046875 27.931277453899384 C 4.9447479248046875 27.931277453899384 6.065601348876953 25.916896641254425 6.065601348876953 25.916896641254425 C 6.065601348876953 25.916896641254425 6.831974029541016 24.538186252117157 6.831974029541016 24.538186252117157 C 6.831974029541016 24.538186252117157 5.648750305175781 23.507492065429688 5.648750305175781 23.507492065429688 C 5.648750305175781 23.507492065429688 3.9153518676757812 21.997908353805542 3.9153518676757812 21.997908353805542 C 3.9153518676757812 21.997908353805542 5.6504669189453125 20.486722111701965 5.6504669189453125 20.486722111701965 C 5.6504669189453125 20.486722111701965 6.832832336425781 19.456027925014496 6.832832336425781 19.456027925014496 C 6.832832336425781 19.456027925014496 6.066459655761719 18.078385889530182 6.066459655761719 18.078385889530182 C 6.066459655761719 18.078385889530182 4.945606231689453 16.063737988471985 4.945606231689453 16.063737988471985 C 4.945606231689453 16.063737988471985 7.080596923828125 15.250987946987152 7.080596923828125 15.250987946987152 C 7.080596923828125 15.250987946987152 8.539813995361328 14.694642782211304 8.539813995361328 14.694642782211304 C 8.539813995361328 14.694642782211304 8.286041259765625 13.133243918418884 8.286041259765625 13.133243918418884 C 8.286041259765625 13.133243918418884 7.914394378662109 10.846165835857391 7.914394378662109 10.846165835857391 C 7.914394378662109 10.846165835857391 10.196346282958984 10.823730409145355 10.196346282958984 10.823730409145355 C 10.196346282958984 10.823730409145355 11.756271362304688 10.807170927524567 11.756271362304688 10.807170927524567 C 11.756271362304688 10.807170927524567 12.041610717773438 9.249778389930725 12.041610717773438 9.249778389930725 C 12.041610717773438 9.249778389930725 12.45855712890625 6.9715142250061035 12.45855712890625 6.9715142250061035 C 12.45855712890625 6.9715142250061035 14.609760284423828 7.74019467830658 14.609760284423828 7.74019467830658 C 14.609760284423828 7.74019467830658 16.078323364257812 8.264222145080566 16.078323364257812 8.264222145080566 C 16.078323364257812 8.264222145080566 16.871112823486328 6.904742121696472 16.871112823486328 6.904742121696472 C 16.871112823486328 6.904742121696472 18.032115936279297 4.911995470523834 18.032115936279297 4.911995470523834 C 18.032115936279297 4.911995470523834 19.793743133544922 6.384988069534302 19.793743133544922 6.384988069534302 C 19.793743133544922 6.384988069534302 20.999187469482422 7.3924455642700195 20.999187469482422 7.3924455642700195 C 20.999187469482422 7.3924455642700195 22.204727172851562 6.384988069534302 22.204727172851562 6.384988069534302 C 22.204727172851562 6.384988069534302 23.967117309570312 4.911995470523834 23.967117309570312 4.911995470523834 C 23.967117309570312 4.911995470523834 25.129074096679688 6.905543386936188 25.129074096679688 6.905543386936188 C 25.129074096679688 6.905543386936188 25.921863555908203 8.265023410320282 25.921863555908203 8.265023410320282 C 25.921863555908203 8.265023410320282 27.390426635742188 7.741263031959534 27.390426635742188 7.741263031959534 C 27.390426635742188 7.741263031959534 29.54248809814453 6.972582578659058 29.54248809814453 6.972582578659058 C 29.54248809814453 6.972582578659058 29.958576202392578 9.25084674358368 29.958576202392578 9.25084674358368 C 29.958576202392578 9.25084674358368 30.243915557861328 10.807972192764282 30.243915557861328 10.807972192764282 C 30.243915557861328 10.807972192764282 31.80384063720703 10.82453167438507 31.80384063720703 10.82453167438507 C 31.80384063720703 10.82453167438507 34.08665084838867 10.848035454750061 34.08665084838867 10.848035454750061 C 34.08665084838867 10.848035454750061 33.715003967285156 13.1340451836586 33.715003967285156 13.1340451836586 C 33.715003967285156 13.1340451836586 33.46037292480469 14.696512401103973 33.46037292480469 14.696512401103973 C 33.46037292480469 14.696512401103973 34.91958999633789 15.251789212226868 34.91958999633789 15.251789212226868 C 34.91958999633789 15.251789212226868 37.0537223815918 16.0645392537117 37.0537223815918 16.0645392537117 C 37.0537223815918 16.0645392537117 35.93277359008789 18.079988420009613 35.93277359008789 18.079988420009613 C 35.93277359008789 18.079988420009613 35.16649627685547 19.45869880914688 35.16649627685547 19.45869880914688 C 35.16649627685547 19.45869880914688 36.3497200012207 20.48939299583435 36.3497200012207 20.48939299583435 C 36.3497200012207 20.48939299583435 38.0831184387207 21.997107088565826 38.0831184387207 21.997107088565826 C 38.0831184387207 21.997107088565826 36.34886169433594 23.510162949562073 36.34886169433594 23.510162949562073 C 36.34886169433594 23.510162949562073 35.1656379699707 24.540055871009827 35.1656379699707 24.540055871009827 C 35.1656379699707 24.540055871009827 35.932010650634766 25.91769790649414 35.932010650634766 25.91769790649414 C 35.932010650634766 25.91769790649414 37.05286407470703 27.932345807552338 37.05286407470703 27.932345807552338 C 37.05286407470703 27.932345807552338 34.918731689453125 28.74696546792984 34.918731689453125 28.74696546792984 Z"/></g></svg>